<mxfile host="app.diagrams.net" modified="2021-09-01T08:21:05.640Z" agent="5.0 (Macintosh; Intel Mac OS X 10_15_7) AppleWebKit/537.36 (KHTML, like Gecko) Chrome/92.0.4515.159 Safari/537.36" etag="xiT-Y9UVIOm9WvW-05Do" version="15.0.4" type="github">
  <diagram id="9RPMq4-acWpx4GLyYASW" name="第 1 页">
    <mxGraphModel dx="1188" dy="662" grid="1" gridSize="10" guides="1" tooltips="1" connect="1" arrows="1" fold="1" page="1" pageScale="1" pageWidth="1169" pageHeight="827" math="0" shadow="0">
      <root>
        <mxCell id="0" />
        <mxCell id="1" parent="0" />
        <mxCell id="-FOwAw8p_60e_QP0o1Os-2" value="" style="html=1;shadow=0;dashed=0;align=center;verticalAlign=middle;shape=mxgraph.arrows2.arrow;dy=0;dx=12;direction=south;notch=0;fillColor=#d5e8d4;strokeColor=#82b366;" vertex="1" parent="1">
          <mxGeometry x="660" y="150" width="10" height="90" as="geometry" />
        </mxCell>
        <mxCell id="-FOwAw8p_60e_QP0o1Os-3" value="" style="html=1;shadow=0;dashed=0;align=center;verticalAlign=middle;shape=mxgraph.arrows2.arrow;dy=0;dx=12;direction=south;notch=0;fillColor=#d5e8d4;strokeColor=#82b366;" vertex="1" parent="1">
          <mxGeometry x="650" y="150" width="10" height="90" as="geometry" />
        </mxCell>
        <mxCell id="-FOwAw8p_60e_QP0o1Os-7" value="" style="html=1;shadow=0;dashed=0;align=center;verticalAlign=middle;shape=mxgraph.arrows2.arrow;dy=1;dx=43;direction=west;notch=0;fillColor=#d5e8d4;strokeColor=#82b366;" vertex="1" parent="1">
          <mxGeometry x="620" y="620" width="80" height="10" as="geometry" />
        </mxCell>
        <mxCell id="-FOwAw8p_60e_QP0o1Os-12" value="" style="ellipse;whiteSpace=wrap;html=1;aspect=fixed;" vertex="1" parent="1">
          <mxGeometry x="475" y="240" width="380" height="380" as="geometry" />
        </mxCell>
        <mxCell id="-FOwAw8p_60e_QP0o1Os-14" value="&lt;font size=&quot;3&quot;&gt;0&lt;/font&gt;" style="text;html=1;align=center;verticalAlign=middle;resizable=0;points=[];autosize=1;" vertex="1" parent="1">
          <mxGeometry x="680" y="185" width="20" height="20" as="geometry" />
        </mxCell>
        <mxCell id="-FOwAw8p_60e_QP0o1Os-15" value="&lt;font style=&quot;font-size: 18px&quot;&gt;2^32-1&lt;/font&gt;" style="text;html=1;align=center;verticalAlign=middle;resizable=0;points=[];autosize=1;" vertex="1" parent="1">
          <mxGeometry x="580" y="185" width="70" height="20" as="geometry" />
        </mxCell>
      </root>
    </mxGraphModel>
  </diagram>
</mxfile>
